<svg width="119" height="26" viewBox="0 0 119 26" fill="none" xmlns="http://www.w3.org/2000/svg">
<g clip-path="url(#clip0_4178_481)">
<path d="M24.9561 3.01709C24.9561 1.72742 24.0349 0.83972 22.7453 0.83972C19.5127 0.83972 16.2802 0.83972 13.0476 0.83972C9.81505 0.83972 6.74998 0.906716 3.60118 0.806222C1.6583 0.755975 0.871094 1.94515 0.871094 3.5698C0.904592 6.73536 0.871094 9.90092 0.871094 13.0832C0.871094 16.2655 0.871094 19.1464 0.871094 22.1779C0.871094 23.6686 1.75879 24.707 3.04846 24.707C9.63081 24.707 16.2132 24.707 22.7788 24.707C24.0182 24.707 24.9394 23.7858 24.9394 22.5464C24.9394 16.0478 24.9394 9.53244 24.9394 3.03384L24.9561 3.01709ZM3.80217 9.91767C4.40513 8.79548 5.09184 7.72355 5.81204 6.66836C6.33126 5.89791 7.3362 5.73042 8.10665 6.19939C8.9106 6.66836 9.21208 7.6733 8.74311 8.51075C8.1234 9.59944 7.45344 10.6379 6.78348 11.6931C6.46525 12.1955 5.96278 12.43 5.37657 12.43C4.0534 12.43 3.18245 11.0901 3.80217 9.91767ZM7.20221 21.3907C5.79529 21.3907 4.99134 19.9838 5.71155 18.7276C6.73324 16.9857 7.82192 15.2606 8.8771 13.5354C10.7027 10.5541 12.5284 7.57281 14.354 4.59149C14.7895 3.88803 15.3087 3.33532 16.1964 3.38556C17.5698 3.46931 18.2733 4.89297 17.5028 6.16589C15.8949 8.86248 14.2368 11.5256 12.5954 14.1887C11.356 16.232 10.0998 18.2587 8.86036 20.302C8.47513 20.9385 7.98941 21.374 7.20221 21.3907ZM21.8743 11.6931C20.9699 13.2507 19.9984 14.7749 19.0605 16.3158C18.022 17.9907 17.0004 19.6823 15.9619 21.3405C15.2752 22.4459 14.3038 22.7474 13.3826 22.1612C12.4949 21.6085 12.3274 20.5868 12.9639 19.5316C14.9067 16.366 16.8496 13.2005 18.7925 10.0182C19.1777 9.3817 19.6802 8.94623 20.4674 8.96297C21.8576 8.96297 22.628 10.4034 21.8911 11.6763L21.8743 11.6931Z" fill="white"/>
<path d="M81.216 7.12109H86.4082C87.6308 11.3251 88.8535 15.4956 90.0762 19.6828C90.1432 19.6828 90.2102 19.6828 90.2772 19.6828C91.4998 15.4956 92.7225 11.3251 93.9284 7.13784H99.1374C97.0605 13.067 95.0004 18.9124 92.9737 24.741H87.3628C85.3195 18.8956 83.2761 13.067 81.1992 7.12109H81.216Z" fill="white"/>
<path d="M75.4219 1.125H80.1451V24.7076H75.4219V1.125Z" fill="white"/>
<path d="M55.2214 10.1187C54.7189 7.30486 53.4795 4.87626 51.0844 3.13436C49.309 1.86144 47.2991 1.19148 45.172 1.12449C41.9562 1.00724 38.7236 1.09099 35.4241 1.09099V24.7071C35.6083 24.7405 35.7423 24.774 35.8763 24.774C39.2093 24.7238 42.5591 24.841 45.8922 24.5731C50.1632 24.2381 53.111 21.9267 54.6352 17.907C55.5898 15.3779 55.7071 12.7483 55.2381 10.1187H55.2214ZM50.0962 15.7463C49.443 18.4597 47.6341 20.0676 44.837 20.2686C43.3966 20.3691 41.9562 20.2853 40.432 20.2853V5.26148C43.1119 5.37873 45.9424 4.59153 48.1868 6.61815C49.041 7.3886 49.6775 8.56103 50.0292 9.66647C50.6656 11.6428 50.5819 13.703 50.0962 15.7463Z" fill="white"/>
<path d="M109.722 17.1032H115.802C115.936 14.6913 115.702 12.5139 114.546 10.5208C113.173 8.17594 110.995 7.05376 108.366 6.81928C105.234 6.55129 102.47 7.42224 100.578 10.0518C98.7519 12.5809 98.4504 15.4785 99.0366 18.4766C99.3716 20.2017 100.092 21.8096 101.432 22.9653C104.698 25.7791 109.756 25.9466 113.29 23.4678C114.429 22.6973 115.384 21.3239 115.668 19.6825C114.127 19.5987 112.687 19.515 111.263 19.4313C109.923 21.5919 107.813 21.7259 106.155 21.1899C104.497 20.6539 103.592 19.1298 103.743 17.1199H109.706L109.722 17.1032ZM107.78 10.4203C109.722 10.5041 111.28 12.1957 111.079 14.0548H103.777C103.777 11.9277 105.552 10.3198 107.78 10.4203Z" fill="white"/>
<path d="M73.6772 14.8921C73.4762 11.5088 72.1196 8.89601 68.887 7.43885C65.2022 5.7807 60.4455 7.08712 58.2179 10.4369C56.6938 12.7315 56.5765 15.2941 56.8613 17.8902C57.0455 19.5986 57.682 21.1563 58.8711 22.4627C61.0653 24.8745 63.9126 25.3435 66.9609 25.0755C69.0713 24.8913 70.9304 24.0371 72.3206 22.3789C72.957 21.6085 73.426 20.5868 73.4762 19.6824C71.9688 19.5986 70.5284 19.5149 69.1383 19.4311C67.8653 21.709 65.3027 21.843 63.5608 20.9888C62.0869 20.2686 61.4505 18.4262 61.8022 17.103H73.56C73.6102 16.8853 73.6437 16.8183 73.6437 16.7345C73.6437 16.1148 73.6772 15.5119 73.6437 14.9089L73.6772 14.8921ZM69.021 14.0379H61.7352C61.4002 12.5808 63.0751 10.6379 65.0515 10.4202C67.0949 10.2024 69.2053 11.8941 69.021 14.0379Z" fill="white"/>
</g>
<defs>
<clipPath id="clip0_4178_481">
<rect width="118.7" height="24.688" fill="white" transform="translate(0 0.655762)"/>
</clipPath>
</defs>
</svg>
